<svg width="309" height="52" viewBox="0 0 309 52" fill="none" xmlns="http://www.w3.org/2000/svg">
<rect width="308.327" height="51.2381" transform="translate(0 0.570312)" fill="#203F79"/>
<path fill-rule="evenodd" clip-rule="evenodd" d="M105.172 36.2051L107.353 34.2884L106.841 33.7957L107.233 33.2279L107.134 32.3056L107.443 31.6928L107.009 30.7885L107.275 30.0014L106.85 29.0191L107.084 28.0247L106.871 27.7032L107.099 26.5616L107.521 25.7655L107.92 24.5849L107.979 23.7197L108.492 23.0948L108.777 21.9712L108.83 20.9048L109.172 20.1447L109.154 19.4027L111.458 17.471L111.674 16.8281L199.216 12.2617L201.487 13.9501L201.718 15.1067L201.772 15.7436L201.209 16.786L201.691 17.9546L201.58 18.7117L201.796 19.8923L200.675 21.7039L201.58 22.8425L201.613 23.9179L202.398 25.3209L203.645 26.6157L202.992 28.5804L203.016 29.016L202.671 30.1606L203.138 31.2121L105.172 36.2051Z" fill="#FF1727"/>
<path d="M150.979 16.3683L153.094 16.2662L156.315 16.11L158.431 16.0078L150.979 16.3683Z" fill="#FEFEFE"/>
<path d="M187.556 16.8821L185.836 18.7838L187.211 18.7147L186.079 20.0486L186.456 27.8955L193.048 27.577L194.597 25.8677L194.148 16.5547L187.556 16.8821ZM188.563 25.7475L188.263 19.2194L188.581 18.8799L192.053 18.7117L192.353 25.2398L192.035 25.5793L188.563 25.7475Z" fill="#FEFEFE"/>
<path d="M184.958 22.4283L184.776 18.64L183.071 17.0898L176.479 17.4083L176.565 19.2108L177.764 19.1537L176.631 20.4876L177.009 28.3345L179.214 28.2263L179.064 25.1651L181.114 24.2098L183.127 28.0371L185.57 27.9169L183.107 23.2694L184.958 22.4283ZM178.786 19.343L182.259 19.1747L182.609 19.4752L182.693 21.2116L178.963 22.954L178.786 19.343Z" fill="#FEFEFE"/>
<path d="M167.006 17.868L167.093 19.6705L168.291 19.6134L167.156 20.9473L167.536 28.7942L174.128 28.4728L175.677 26.7634L175.504 23.2095L174.437 22.6086L175.435 21.9838L175.297 19.1087L173.592 17.5586L167.006 17.868ZM169.637 26.6553L169.556 24.9309L172.253 23.6661L173.34 24.2669L173.43 26.1385L173.112 26.478L169.637 26.6553ZM169.448 22.7168L169.307 19.8027L172.78 19.6345L173.127 19.9349L173.178 20.9533L169.448 22.7168Z" fill="#FEFEFE"/>
<path d="M139.793 21.0071L141.168 20.941L140.036 22.2748L140.416 30.1217L142.619 30.0136L142.484 27.2257L146.079 25.5374L146.289 29.8364L148.506 29.7282L147.979 18.793L141.513 19.1084L139.793 21.0071ZM145.858 20.944L145.974 23.3233L142.379 25.0116L142.208 21.4457L142.526 21.1062L145.858 20.944Z" fill="#FEFEFE"/>
<path d="M157.884 18.3155L155.139 25.165L151.75 18.6129L149.242 18.7361L149.329 20.5476L150.525 20.4905L149.392 21.8244L149.77 29.6713L151.975 29.5631L151.627 22.4072L154.432 27.6555L156.086 27.5744L158.369 22.0797L158.717 29.2357L160.919 29.1305L160.392 18.1953L157.884 18.3155Z" fill="#FEFEFE"/>
<path d="M134.528 19.4492L132.322 19.5544L132.412 21.3689L133.605 21.3088L132.472 22.6427L132.853 30.4896L139.148 30.1832L139.049 28.1433L134.956 28.3416L134.528 19.4492Z" fill="#FEFEFE"/>
<path d="M122.877 21.8274L124.252 21.7583L123.12 23.0921L123.497 30.9391L125.703 30.8339L125.568 28.046L129.163 26.3547L129.37 30.6537L131.59 30.5455L131.063 19.6133L124.597 19.9137L122.877 21.8274ZM128.942 21.7613L129.055 24.1406L125.46 25.8319L125.289 22.263L125.607 21.9235L128.942 21.7613Z" fill="#FEFEFE"/>
<path d="M113.518 22.2883L114.893 22.2222L113.76 23.5561L113.847 25.3796L119.837 27.5036L119.897 28.7533L119.591 29.0898L116.244 29.252L116.166 27.6508L113.964 27.7589L114.138 31.4L120.604 31.0876L122.15 29.3782L121.991 26.0946L115.99 23.9706L115.927 22.7239L116.247 22.3844L119.582 22.2222L119.66 23.8234L121.877 23.7183L121.701 20.0742L115.237 20.3867L113.518 22.2883Z" fill="#FEFEFE"/>
<path d="M180.107 38.8902L179.385 38.9262L179.202 35.2881L180.032 35.2461L180.143 37.5082L181.641 35.168L182.366 35.1289L182.546 38.767L181.728 38.812L181.614 36.5499L180.107 38.8902ZM176.739 39.0584L176.559 35.4203L178.633 35.3182L178.672 36.0963L177.425 36.1593L177.569 39.0193L176.739 39.0584ZM173 37.4241C173.003 37.569 173.035 37.7117 173.094 37.8439C173.153 37.9761 173.238 38.0949 173.344 38.1932C173.554 38.3802 173.827 38.4777 174.107 38.4648C174.387 38.4518 174.651 38.3296 174.843 38.1241C175.02 37.8952 175.104 37.6076 175.079 37.319C175.077 37.1725 175.046 37.028 174.987 36.8939C174.928 36.7597 174.844 36.6387 174.738 36.5379C174.528 36.3512 174.254 36.2543 173.974 36.2678C173.694 36.2812 173.43 36.4041 173.239 36.61C173.148 36.7229 173.079 36.8531 173.038 36.9928C172.997 37.1326 172.984 37.2792 173 37.4241ZM172.116 37.4662C172.097 37.2177 172.129 36.968 172.21 36.7324C172.291 36.4969 172.419 36.2804 172.586 36.0963C172.761 35.9082 172.972 35.7579 173.206 35.6546C173.44 35.5513 173.694 35.4971 173.95 35.4954C174.203 35.4727 174.458 35.5003 174.701 35.5766C174.944 35.6529 175.169 35.7764 175.364 35.94C175.731 36.2889 175.95 36.7663 175.974 37.2729C175.999 37.7794 175.827 38.2759 175.496 38.6588C175.132 39.0178 174.65 39.2314 174.14 39.2596C173.631 39.2878 173.128 39.1287 172.727 38.812C172.536 38.6438 172.383 38.4368 172.277 38.2048C172.172 37.9729 172.117 37.7211 172.116 37.4662ZM169.764 37.1657C169.749 37.469 169.709 37.7704 169.644 38.067C169.608 38.2709 169.543 38.4684 169.449 38.6528L170.63 38.5927L170.525 36.5138L169.791 36.5529L169.764 37.1657ZM168.215 40.1189L168.146 38.7159L168.535 38.6949C168.67 38.4503 168.765 38.1855 168.817 37.9108C168.916 37.4602 168.962 36.9993 168.952 36.5379V35.8109L171.322 35.6907L171.466 38.5477L171.957 38.5236L172.029 39.9266L171.25 39.9656L171.22 39.3438L168.97 39.4549L169 40.0798L168.215 40.1189ZM166.417 38.1031L166.381 37.376L167.75 37.3069L167.786 38.034L166.417 38.1031ZM163.028 36.8864L162.989 36.1083L165.985 35.9581L166.024 36.7361L164.936 36.7902L165.08 39.6502L164.247 39.6923L164.106 36.8323L163.028 36.8864ZM160.001 38.088C160.005 38.2332 160.037 38.3762 160.097 38.5087C160.156 38.6413 160.24 38.7607 160.346 38.8601C160.446 38.9566 160.565 39.0313 160.696 39.0794C160.826 39.1274 160.965 39.1479 161.104 39.1395C161.248 39.1405 161.391 39.1098 161.522 39.0496C161.653 38.9894 161.769 38.9011 161.862 38.791C162.037 38.5611 162.121 38.2741 162.096 37.9859C162.095 37.8395 162.065 37.6947 162.007 37.5604C161.949 37.4261 161.864 37.3051 161.757 37.2048C161.547 37.0189 161.273 36.9224 160.994 36.9359C160.714 36.9493 160.45 37.0717 160.259 37.2769C160.078 37.5004 159.991 37.7861 160.016 38.073L160.001 38.088ZM159.121 38.1331C159.1 37.8845 159.131 37.6345 159.212 37.3987C159.293 37.1629 159.422 36.9465 159.591 36.7632C159.765 36.5752 159.976 36.4249 160.211 36.3215C160.445 36.2182 160.698 36.164 160.954 36.1623C161.208 36.1392 161.463 36.1665 161.706 36.2429C161.949 36.3192 162.174 36.4429 162.369 36.607C162.735 36.9566 162.952 37.4342 162.976 37.9405C163 38.4468 162.829 38.9429 162.497 39.3258C162.134 39.6839 161.652 39.897 161.143 39.9252C160.634 39.9534 160.133 39.7948 159.732 39.479C159.541 39.3084 159.388 39.0986 159.286 38.8637C159.183 38.6289 159.131 38.3746 159.135 38.1181L159.121 38.1331ZM158.962 36.3306L157.889 38.1721L159.189 39.9747L158.216 40.0257L157.377 38.8421L156.669 40.1008L155.696 40.1519L156.81 38.2352L155.573 36.5108L156.547 36.4598L157.341 37.5923L157.988 36.3907L158.962 36.3306ZM151.764 40.3141L151.039 40.3532L150.865 36.7091L151.696 36.667L151.809 38.9262L153.308 36.5859L154.033 36.5499L154.215 40.188L153.385 40.23L153.275 37.9679L151.764 40.3141ZM146.071 36.9555L146.128 38.091C146.242 38.073 146.35 38.061 146.449 38.055C146.626 38.0332 146.806 38.0466 146.978 38.0945C147.151 38.1425 147.312 38.224 147.453 38.3344C147.692 38.5808 147.828 38.9093 147.835 39.2531C147.841 39.5969 147.716 39.9301 147.486 40.185C147.188 40.4536 146.801 40.6005 146.401 40.5965L145.853 40.6176L145.424 40.6356L145.244 36.9975L146.071 36.9555ZM146.416 38.8391C146.332 38.8464 146.249 38.8595 146.167 38.8781L146.215 39.8034H146.461C146.531 39.8106 146.601 39.8014 146.667 39.7766C146.732 39.7518 146.791 39.712 146.839 39.6605C146.886 39.6089 146.922 39.5469 146.941 39.4795C146.961 39.412 146.965 39.3409 146.952 39.2717C146.954 39.2063 146.942 39.1412 146.915 39.0813C146.889 39.0215 146.849 38.9684 146.799 38.9262C146.685 38.8499 146.546 38.8179 146.41 38.8361L146.416 38.8391ZM148.25 40.4914L148.067 36.8533L148.9 36.8143L149.08 40.4493L148.25 40.4914ZM143.222 37.8687L142.859 37.8958L142.901 38.7279C143.028 38.7368 143.155 38.7368 143.282 38.7279C143.404 38.7226 143.523 38.6796 143.62 38.6047C143.669 38.5614 143.706 38.5065 143.728 38.4451C143.75 38.3837 143.756 38.3177 143.746 38.2533C143.728 37.9799 143.551 37.8477 143.216 37.8657L143.222 37.8687ZM143.003 40.7557L142.173 40.7978L141.993 37.1597L142.518 37.1267L143.099 37.0906C143.501 37.034 143.909 37.1363 144.238 37.376C144.356 37.4852 144.451 37.6168 144.519 37.7632C144.586 37.9096 144.624 38.0679 144.63 38.229C144.636 38.3901 144.611 38.5508 144.554 38.7019C144.498 38.853 144.413 38.9915 144.303 39.1095C144.179 39.237 144.03 39.3385 143.866 39.4081C143.702 39.4777 143.526 39.5141 143.348 39.515C143.213 39.5224 143.078 39.5224 142.943 39.515L143.003 40.7557ZM139.195 40.948L139.012 37.3099L141.163 37.2018L141.202 37.9799L139.881 38.046L139.914 38.6859L141.079 38.6288L141.118 39.4069L139.95 39.4669L139.983 40.1249L141.358 40.0558L141.397 40.8369L139.195 40.948ZM136.552 41.0802L136.369 37.4421L138.443 37.337L138.481 38.1181L137.238 38.1782L137.379 41.0381L136.552 41.0802ZM134.349 38.3133L133.987 38.3434L134.029 39.1725C134.155 39.1814 134.281 39.1814 134.406 39.1725C134.53 39.1693 134.648 39.1261 134.745 39.0494C134.794 39.0066 134.831 38.9523 134.853 38.8913C134.875 38.8304 134.881 38.7649 134.871 38.7009C134.853 38.4245 134.685 38.2953 134.343 38.3103L134.349 38.3133ZM134.128 41.2004L133.301 41.2424L133.118 37.6044L133.645 37.5713L134.227 37.5383C134.628 37.4817 135.036 37.5829 135.365 37.8207C135.484 37.9284 135.58 38.0594 135.647 38.2055C135.714 38.3517 135.751 38.51 135.755 38.6708C135.765 38.8325 135.742 38.9946 135.686 39.1467C135.63 39.2988 135.544 39.4376 135.431 39.5541C135.306 39.6817 135.157 39.7833 134.992 39.8529C134.828 39.9225 134.651 39.9588 134.472 39.9596C134.338 39.967 134.203 39.967 134.068 39.9596L134.128 41.2004ZM132.6 37.6314L131.521 40.4673C131.435 40.7198 131.293 40.9491 131.104 41.1373C130.942 41.2912 130.728 41.379 130.505 41.3836C130.404 41.3877 130.303 41.3755 130.205 41.3476C130.119 41.3296 130.036 41.2971 129.96 41.2514L130.214 40.5274C130.29 40.5789 130.381 40.6052 130.472 40.6025C130.527 40.6075 130.583 40.5947 130.63 40.5661C130.677 40.5375 130.714 40.4945 130.736 40.4433L130.778 40.3322L129.085 37.8086L130.026 37.7606L131.134 39.488L131.782 37.6855L132.6 37.6314ZM127.566 39.9927C127.45 39.9994 127.334 40.0155 127.221 40.0407L127.257 40.7648C127.404 40.7648 127.509 40.7648 127.557 40.7648C127.858 40.7507 128.002 40.6186 127.988 40.3682C127.988 40.262 127.947 40.16 127.874 40.0828C127.831 40.0464 127.781 40.0194 127.727 40.0034C127.673 39.9873 127.616 39.9827 127.56 39.9897L127.566 39.9927ZM126.466 41.5849L126.283 37.9468L128.471 37.8387L128.51 38.6168L127.152 38.6859L127.182 39.2627C127.317 39.2307 127.454 39.2126 127.593 39.2086C127.906 39.1808 128.219 39.2755 128.465 39.473C128.578 39.5732 128.668 39.6962 128.731 39.8339C128.793 39.9715 128.826 40.1208 128.827 40.2721C128.843 40.4369 128.822 40.6033 128.767 40.7592C128.711 40.9151 128.621 41.0565 128.504 41.1733C128.219 41.4221 127.853 41.556 127.476 41.5488C127.299 41.5488 127.095 41.5639 126.876 41.5669L126.466 41.5849Z" fill="#FEFEFE"/>
</svg>
