<svg width="309" height="26" viewBox="0 0 309 26" fill="none" xmlns="http://www.w3.org/2000/svg">
<path d="M1.811 0H4.41342C4.97916 3.0211 8.26044 5.35165 12.4469 5.35165C16.5202 5.35165 19.9147 3.0211 20.3672 0H26.1378C26.7035 3.0211 29.9848 5.35165 34.1713 5.35165C38.2446 5.35165 41.639 3.0211 42.0916 0H47.8622C48.4279 3.0211 51.7091 5.35165 55.8956 5.35165C59.9689 5.35165 63.3634 3.0211 63.816 0H69.5865C70.1522 3.0211 73.4335 5.35165 77.62 5.35165C81.6933 5.35165 85.0878 3.0211 85.5403 0H90.8582H91.3109C91.8766 3.0211 95.1579 5.35165 99.3443 5.35165C103.418 5.35165 106.812 3.0211 107.265 0H113.035C113.601 3.0211 116.882 5.35165 121.069 5.35165C125.142 5.35165 128.536 3.0211 128.989 0H134.76C135.325 3.0211 138.607 5.35165 142.793 5.35165C146.866 5.35165 150.261 3.0211 150.713 0H156.484C157.05 3.0211 160.331 5.35165 164.517 5.35165C168.591 5.35165 171.985 3.0211 172.438 0H178.208C178.774 3.0211 182.055 5.35165 186.242 5.35165C190.315 5.35165 193.71 3.0211 194.162 0H199.933C200.498 3.0211 203.78 5.35165 207.966 5.35165C212.039 5.35165 215.434 3.0211 215.886 0H216.339H221.657C222.223 3.0211 225.504 5.35165 229.69 5.35165C233.764 5.35165 237.158 3.0211 237.611 0H243.381C243.947 3.0211 247.228 5.35165 251.415 5.35165C255.488 5.35165 258.883 3.0211 259.335 0H265.106C265.671 3.0211 268.953 5.35165 273.139 5.35165C277.213 5.35165 280.607 3.0211 281.06 0H286.83C287.396 3.0211 290.677 5.35165 294.864 5.35165C298.937 5.35165 302.331 3.0211 302.784 0H308.328L308.328 26H306.518H303.915H295.882H287.962H282.191H274.158H266.237H260.467H252.433H244.513H238.742H230.709H222.788H217.471H217.018H208.984H201.064H195.294H187.26H179.34H173.569H165.536H157.615H151.845H143.811H135.891H130.121H122.087H114.167H108.396H100.363H92.4424H91.9897H86.6718H78.6383H70.718H64.9474H56.9139H48.9936H43.2231H35.1896H27.2693H21.4987H13.4652H5.54489H0.000640869V0H1.811Z" fill="white"/>
</svg>
