<svg width="309" height="26" viewBox="0 0 309 26" fill="none" xmlns="http://www.w3.org/2000/svg">
<path d="M1.811 26H4.41342C4.97916 22.9789 8.26044 20.6483 12.4469 20.6483C16.5202 20.6483 19.9147 22.9789 20.3672 26H26.1378C26.7035 22.9789 29.9848 20.6483 34.1713 20.6483C38.2446 20.6483 41.639 22.9789 42.0916 26H47.8622C48.4279 22.9789 51.7091 20.6483 55.8956 20.6483C59.9689 20.6483 63.3634 22.9789 63.816 26H69.5865C70.1522 22.9789 73.4335 20.6483 77.62 20.6483C81.6933 20.6483 85.0878 22.9789 85.5403 26H90.8582H91.3109C91.8766 22.9789 95.1579 20.6483 99.3443 20.6483C103.418 20.6483 106.812 22.9789 107.265 26H113.035C113.601 22.9789 116.882 20.6483 121.069 20.6483C125.142 20.6483 128.536 22.9789 128.989 26H134.76C135.325 22.9789 138.607 20.6483 142.793 20.6483C146.866 20.6483 150.261 22.9789 150.713 26H156.484C157.05 22.9789 160.331 20.6483 164.517 20.6483C168.591 20.6483 171.985 22.9789 172.438 26H178.208C178.774 22.9789 182.055 20.6483 186.242 20.6483C190.315 20.6483 193.71 22.9789 194.162 26H199.933C200.498 22.9789 203.78 20.6483 207.966 20.6483C212.039 20.6483 215.434 22.9789 215.886 26H216.339H221.657C222.223 22.9789 225.504 20.6483 229.69 20.6483C233.764 20.6483 237.158 22.9789 237.611 26H243.381C243.947 22.9789 247.228 20.6483 251.415 20.6483C255.488 20.6483 258.883 22.9789 259.335 26H265.106C265.671 22.9789 268.953 20.6483 273.139 20.6483C277.213 20.6483 280.607 22.9789 281.06 26H286.83C287.396 22.9789 290.677 20.6483 294.864 20.6483C298.937 20.6483 302.331 22.9789 302.784 26H308.328L308.328 0H306.518H303.915H295.882H287.962H282.191H274.158H266.237H260.467H252.433H244.513H238.742H230.709H222.788H217.471H217.018H208.984H201.064H195.294H187.26H179.34H173.569H165.536H157.615H151.845H143.811H135.891H130.121H122.087H114.167H108.396H100.363H92.4424H91.9897H86.6718H78.6383H70.718H64.9474H56.9139H48.9936H43.2231H35.1896H27.2693H21.4987H13.4652H5.54489H0.000640869V26H1.811Z" fill="white"/>
</svg>
